<svg width="1057" height="301" viewBox="0 0 1057 301" fill="none" xmlns="http://www.w3.org/2000/svg">
<rect x="186.875" y="1" width="39" height="168" fill="#303743"/>
<path d="M187 167H226L259 301H155L187 167Z" fill="#303743"/>
<rect x="246.875" y="1" width="39" height="168" fill="#4C66AD"/>
<path d="M247 168H286L413.5 301H293.5L247 168Z" fill="#4C66AD"/>
<rect width="39" height="168" transform="matrix(-1 0 0 1 166.875 0)" fill="#9193C5"/>
<path d="M166.5 168H127.5L0 301H120L166.5 168Z" fill="#9193C5"/>
<path d="M350 184.823V137.883L431.468 87.9405V130.241L351.337 173.771V147.981L431.468 191.51V234.766L350 184.823Z" fill="#595E62"/>
<path d="M498.975 245C488.281 245 479.023 240.952 471.2 232.856C463.427 224.759 457.412 213.115 453.154 197.923C448.945 182.64 446.841 164.31 446.841 142.932V142.795C446.841 121.417 448.97 103.132 453.228 87.9405C457.486 72.7485 463.501 61.1498 471.274 53.1445C479.097 45.0482 488.33 41 498.975 41C508.332 41 516.576 44.3659 523.705 51.0977C530.884 57.8294 536.528 67.0174 540.638 78.6615C544.796 90.3057 547.024 103.496 547.321 118.233L547.396 119.462H521.106L520.957 117.551C520.363 110.637 519.125 104.588 517.244 99.4027C515.412 94.1264 512.962 89.9873 509.892 86.9853C506.822 83.9833 503.183 82.4823 498.975 82.4823C494.024 82.4823 489.717 84.893 486.053 89.7144C482.439 94.5358 479.641 101.449 477.661 110.456C475.681 119.371 474.69 130.105 474.69 142.659V142.795C474.69 155.44 475.681 166.311 477.661 175.408C479.641 184.505 482.463 191.464 486.127 196.286C489.791 201.107 494.098 203.518 499.049 203.518C503.01 203.518 506.525 202.108 509.595 199.288C512.664 196.377 515.189 192.283 517.17 187.007C519.15 181.639 520.462 175.272 521.106 167.903L521.254 166.538H547.47V168.039C547.123 182.686 544.846 195.831 540.638 207.475C536.479 219.028 530.81 228.171 523.631 234.902C516.501 241.634 508.283 245 498.975 245Z" fill="#595E62"/>
<path d="M610.224 245C599.43 245 590.073 240.861 582.151 232.583C574.23 224.304 568.115 212.569 563.808 197.377C559.501 182.094 557.347 163.991 557.347 143.068V142.795C557.347 121.872 559.501 103.815 563.808 88.6227C568.165 73.4308 574.304 61.6957 582.226 53.4174C590.147 45.1391 599.48 41 610.224 41C621.116 41 630.523 45.1391 638.444 53.4174C646.366 61.6957 652.455 73.4308 656.713 88.6227C661.021 103.815 663.174 121.872 663.174 142.795V143.068C663.174 163.991 661.021 182.094 656.713 197.377C652.455 212.569 646.366 224.304 638.444 232.583C630.572 240.861 621.165 245 610.224 245ZM610.224 203.518C615.472 203.518 619.952 201.062 623.665 196.149C627.428 191.146 630.325 184.141 632.354 175.135C634.384 166.038 635.399 155.349 635.399 143.068V142.795C635.399 130.423 634.36 119.734 632.28 110.728C630.25 101.722 627.354 94.7632 623.591 89.8508C619.828 84.9385 615.373 82.4823 610.224 82.4823C605.223 82.4823 600.817 84.9385 597.004 89.8508C593.242 94.6722 590.321 101.586 588.241 110.592C586.211 119.598 585.196 130.332 585.196 142.795V143.068C585.196 155.44 586.211 166.175 588.241 175.272C590.321 184.278 593.242 191.237 597.004 196.149C600.767 201.062 605.174 203.518 610.224 203.518Z" fill="#595E62"/>
<path d="M676.468 241.452V44.5478H720.061C730.805 44.5478 740.013 48.2776 747.688 55.7371C755.362 63.1967 761.228 74.1585 765.288 88.6227C769.348 102.996 771.378 120.644 771.378 141.567V141.84C771.378 162.763 769.348 180.684 765.288 195.603C761.228 210.431 755.362 221.803 747.688 229.717C740.063 237.54 730.854 241.452 720.061 241.452H676.468ZM703.723 201.062H716.422C722.314 201.062 727.289 198.878 731.349 194.512C735.409 190.054 738.454 183.459 740.484 174.726C742.563 165.993 743.603 155.076 743.603 141.977V141.704C743.603 129.423 742.538 119.052 740.41 110.592C738.281 102.132 735.162 95.7639 731.052 91.4883C726.992 87.1217 722.116 84.9385 716.422 84.9385H703.723V201.062Z" fill="#595E62"/>
<path d="M784.746 241.452V44.5478H858.193V84.802H812.001V123.692H855.446V161.353H812.001V201.198H858.193V241.452H784.746Z" fill="#595E62"/>
<path d="M916.788 245C907.777 245 899.856 242.589 893.024 237.768C886.191 232.946 880.869 226.215 877.057 217.573C873.244 208.839 871.338 198.787 871.338 187.416V187.143C871.338 178.41 872.452 170.678 874.68 163.946C876.908 157.123 879.953 151.528 883.815 147.162C887.676 142.704 892.058 139.702 896.96 138.156V137.201C890.622 134.563 885.424 129.423 881.364 121.781C877.304 114.14 875.274 104.997 875.274 94.3538V94.0809C875.274 83.8013 877.007 74.7043 880.473 66.79C883.988 58.7846 888.865 52.5077 895.103 47.9592C901.391 43.3197 908.619 41 916.788 41C925.056 41 932.31 43.3197 938.548 47.9592C944.786 52.5077 949.638 58.7846 953.104 66.79C956.619 74.7043 958.376 83.8013 958.376 94.0809V94.3538C958.376 104.997 956.347 114.14 952.287 121.781C948.227 129.423 943.028 134.563 936.691 137.201V138.156C941.593 139.702 945.974 142.704 949.836 147.162C953.698 151.528 956.743 157.123 958.971 163.946C961.199 170.678 962.312 178.41 962.312 187.143V187.416C962.312 198.787 960.406 208.839 956.594 217.573C952.782 226.215 947.46 232.946 940.627 237.768C933.795 242.589 925.849 245 916.788 245ZM916.788 210.477C920.155 210.477 923.101 209.34 925.626 207.066C928.2 204.791 930.205 201.653 931.641 197.65C933.126 193.647 933.869 189.099 933.869 184.005V183.732C933.869 178.637 933.151 174.134 931.715 170.223C930.28 166.22 928.275 163.082 925.7 160.807C923.175 158.442 920.204 157.26 916.788 157.26C913.422 157.26 910.451 158.442 907.876 160.807C905.302 163.082 903.297 166.22 901.861 170.223C900.475 174.134 899.782 178.637 899.782 183.732V184.005C899.782 189.099 900.5 193.647 901.935 197.65C903.371 201.653 905.376 204.791 907.951 207.066C910.525 209.34 913.471 210.477 916.788 210.477ZM916.788 123.009C919.66 123.009 922.185 122.009 924.363 120.007C926.591 118.006 928.324 115.231 929.562 111.684C930.849 108.045 931.493 103.86 931.493 99.1298V98.8569C931.493 94.2174 930.849 90.1237 929.562 86.5759C928.324 83.0281 926.591 80.299 924.363 78.3886C922.185 76.3873 919.66 75.3866 916.788 75.3866C913.966 75.3866 911.441 76.3873 909.213 78.3886C907.035 80.299 905.302 83.0281 904.015 86.5759C902.777 90.1237 902.158 94.2174 902.158 98.8569V99.1298C902.158 103.86 902.777 108.045 904.015 111.684C905.252 115.231 906.985 118.006 909.213 120.007C911.441 122.009 913.966 123.009 916.788 123.009Z" fill="#595E62"/>
<path d="M975.235 241.452V207.338L1013.18 146.07C1017.69 138.793 1021.08 132.743 1023.36 127.922C1025.64 123.009 1027.17 118.643 1027.96 114.822C1028.8 111.001 1029.22 107.09 1029.22 103.087V102.814C1029.22 98.0836 1028.61 93.9445 1027.37 90.3967C1026.18 86.7579 1024.52 83.9378 1022.39 81.9365C1020.26 79.8441 1017.79 78.798 1014.97 78.798C1011.75 78.798 1008.93 79.9806 1006.5 82.3458C1004.12 84.6201 1002.27 87.804 1000.93 91.8977C999.593 95.9913 998.851 100.676 998.702 105.953L998.628 107.454H973.675V106.225C973.675 93.3987 975.433 82.0729 978.948 72.2482C982.463 62.4234 987.315 54.7819 993.504 49.3237C999.742 43.7746 1006.87 41 1014.89 41C1023.06 41 1030.19 43.5017 1036.28 48.505C1042.37 53.4174 1047.1 60.2856 1050.46 69.1097C1053.88 77.8428 1055.59 88.0769 1055.59 99.812V100.085C1055.59 108.454 1054.8 116.05 1053.21 122.873C1051.63 129.605 1049.05 136.564 1045.49 143.751C1041.92 150.846 1037.17 159.124 1031.23 168.585L999.296 218.664L1010.36 184.278V218.664L999.371 202.835H1057V241.452H975.235Z" fill="#595E62"/>
</svg>
