<svg width="929" height="395" viewBox="0 0 929 395" fill="none" xmlns="http://www.w3.org/2000/svg">
<path d="M555.75 0H594.75V262H555.75V0Z" fill="#F8D666"/>
<path d="M556 261H595L628 395H524L556 261Z" fill="#F8D666"/>
<path d="M615.75 0H654.75V262H615.75V0Z" fill="#F8D666"/>
<path d="M616 262H655L782.5 395H662.5L616 262Z" fill="#F8D666"/>
<path d="M535.75 0H496.75V262H535.75V0Z" fill="#F8D666"/>
<path d="M535.5 262H496.5L369 395H489L535.5 262Z" fill="#F8D666"/>
<path d="M60.4539 270C48.0531 270 37.3172 265.555 28.2463 256.665C19.2327 247.775 12.2573 234.989 7.31991 218.308C2.43997 201.526 0 181.399 0 157.925V157.775C0 134.301 2.46868 114.224 7.40603 97.5425C12.3434 80.8611 19.3188 68.1253 28.3324 59.3351C37.4033 50.445 48.1105 46 60.4539 46C71.3046 46 80.8635 49.6959 89.1307 57.0876C97.4553 64.4794 104 74.5681 108.765 87.3538C113.588 100.14 116.171 114.623 116.516 130.805L116.602 132.154H86.1166L85.9444 130.056C85.2555 122.465 83.8202 115.822 81.6386 110.128C79.5144 104.335 76.6725 99.79 73.113 96.4936C69.5535 93.1973 65.3338 91.5492 60.4539 91.5492C54.7128 91.5492 49.718 94.1962 45.4696 99.4903C41.2786 104.784 38.0348 112.376 35.7384 122.265C33.442 132.054 32.2937 143.841 32.2937 157.625V157.775C32.2937 171.66 33.442 183.596 35.7384 193.585C38.0348 203.574 41.3073 211.216 45.5557 216.51C49.8041 221.804 54.7989 224.451 60.54 224.451C65.1329 224.451 69.2091 222.903 72.7685 219.806C76.328 216.61 79.256 212.115 81.5524 206.321C83.8489 200.428 85.3703 193.435 86.1166 185.344L86.2889 183.846H116.688V185.494C116.286 201.576 113.645 216.01 108.765 228.796C103.943 241.482 97.3692 251.521 89.0446 258.912C80.7774 266.304 71.2472 270 60.4539 270Z" fill="#5F5D5D"/>
<path d="M189.457 270C176.941 270 166.09 265.455 156.904 256.365C147.719 247.275 140.628 234.39 135.634 217.708C130.639 200.927 128.142 181.049 128.142 158.075V157.775C128.142 134.801 130.639 114.973 135.634 98.2916C140.686 81.6103 147.805 68.7246 156.991 59.6348C166.176 50.5449 176.998 46 189.457 46C202.087 46 212.995 50.5449 222.181 59.6348C231.367 68.7246 238.428 81.6103 243.366 98.2916C248.36 114.973 250.858 134.801 250.858 157.775V158.075C250.858 181.049 248.36 200.927 243.366 217.708C238.428 234.39 231.367 247.275 222.181 256.365C213.053 265.455 202.144 270 189.457 270ZM189.457 224.451C195.542 224.451 200.738 221.754 205.044 216.36C209.407 210.866 212.765 203.175 215.119 193.286C217.473 183.297 218.65 171.56 218.65 158.075V157.775C218.65 144.19 217.444 132.454 215.033 122.565C212.679 112.676 209.321 105.034 204.958 99.6401C200.594 94.2461 195.427 91.5492 189.457 91.5492C183.658 91.5492 178.548 94.2461 174.128 99.6401C169.765 104.934 166.377 112.526 163.966 122.415C161.612 132.304 160.435 144.091 160.435 157.775V158.075C160.435 171.66 161.612 183.447 163.966 193.435C166.377 203.324 169.765 210.966 174.128 216.36C178.491 221.754 183.601 224.451 189.457 224.451Z" fill="#5F5D5D"/>
<path d="M266.273 266.104V49.8957H316.823C329.281 49.8957 339.96 53.9911 348.858 62.1819C357.757 70.3728 364.56 82.4094 369.268 98.2916C373.976 114.074 376.33 133.452 376.33 156.427V156.726C376.33 179.701 373.976 199.379 369.268 215.761C364.56 232.042 357.757 244.528 348.858 253.219C340.017 261.809 329.339 266.104 316.823 266.104H266.273ZM297.877 221.754H312.603C319.435 221.754 325.205 219.357 329.913 214.562C334.621 209.667 338.151 202.425 340.505 192.836C342.916 183.247 344.122 171.26 344.122 156.876V156.577C344.122 143.092 342.888 131.704 340.419 122.415C337.95 113.125 334.333 106.133 329.568 101.438C324.861 96.6435 319.206 94.2462 312.603 94.2462H297.877V221.754Z" fill="#5F5D5D"/>
<path d="M391.831 266.104V49.8957H477V94.0963H423.435V136.799H473.814V178.152H423.435V221.904H477V266.104H391.831Z" fill="#5F5D5D"/>
<path d="M730.382 267C717.618 267 706.397 264.436 696.718 259.307C687.04 254.178 679.501 247.018 674.1 237.825C668.7 228.535 666 217.842 666 205.746V205.456C666 196.167 667.578 187.941 670.734 180.781C673.89 173.523 678.203 167.572 683.674 162.927C689.144 158.186 695.351 154.992 702.294 153.347V152.331C693.317 149.525 685.953 144.058 680.202 135.929C674.451 127.801 671.576 118.076 671.576 106.754V106.464C671.576 95.5289 674.03 85.8522 678.94 77.4334C683.919 68.9179 690.827 62.241 699.664 57.4027C708.571 52.4676 718.81 50 730.382 50C742.095 50 752.369 52.4676 761.206 57.4027C770.043 62.241 776.916 68.9179 781.825 77.4334C786.805 85.8522 789.294 95.5289 789.294 106.464V106.754C789.294 118.076 786.419 127.801 780.668 135.929C774.917 144.058 767.553 149.525 758.576 152.331V153.347C765.519 154.992 771.726 158.186 777.196 162.927C782.667 167.572 786.98 173.523 790.136 180.781C793.292 187.941 794.87 196.167 794.87 205.456V205.746C794.87 217.842 792.17 228.535 786.77 237.825C781.369 247.018 773.83 254.178 764.152 259.307C754.473 264.436 743.217 267 730.382 267ZM730.382 230.277C735.151 230.277 739.324 229.067 742.901 226.648C746.548 224.229 749.389 220.891 751.422 216.633C753.526 212.375 754.578 207.537 754.578 202.118V201.827C754.578 196.408 753.561 191.619 751.528 187.458C749.494 183.2 746.653 179.861 743.006 177.442C739.43 174.926 735.222 173.668 730.382 173.668C725.613 173.668 721.405 174.926 717.758 177.442C714.111 179.861 711.271 183.2 709.237 187.458C707.273 191.619 706.292 196.408 706.292 201.827V202.118C706.292 207.537 707.309 212.375 709.342 216.633C711.376 220.891 714.217 224.229 717.864 226.648C721.511 229.067 725.683 230.277 730.382 230.277ZM730.382 137.235C734.45 137.235 738.027 136.171 741.113 134.042C744.269 131.913 746.723 128.962 748.477 125.188C750.3 121.317 751.212 116.866 751.212 111.834V111.544C751.212 106.609 750.3 102.254 748.477 98.4803C746.723 94.7063 744.269 91.8033 741.113 89.7712C738.027 87.6424 734.45 86.5779 730.382 86.5779C726.385 86.5779 722.808 87.6424 719.652 89.7712C716.566 91.8033 714.111 94.7063 712.288 98.4803C710.535 102.254 709.658 106.609 709.658 111.544V111.834C709.658 116.866 710.535 121.317 712.288 125.188C714.041 128.962 716.496 131.913 719.652 134.042C722.808 136.171 726.385 137.235 730.382 137.235Z" fill="#5F5D5D"/>
<path d="M813.175 263.226V226.938L866.932 161.766C873.314 154.025 878.118 147.59 881.344 142.461C884.571 137.235 886.745 132.591 887.867 128.526C889.059 124.462 889.655 120.301 889.655 116.043V115.753C889.655 110.721 888.779 106.318 887.025 102.544C885.342 98.6738 882.993 95.674 879.977 93.5452C876.961 91.3195 873.454 90.2067 869.457 90.2067C864.898 90.2067 860.901 91.4647 857.464 93.9806C854.098 96.3998 851.468 99.7866 849.574 104.141C847.68 108.496 846.628 113.479 846.418 119.092L846.313 120.688H810.966V119.382C810.966 105.738 813.455 93.6903 818.435 83.2395C823.414 72.7886 830.287 64.6602 839.054 58.8542C847.891 52.9514 857.99 50 869.352 50C880.924 50 891.023 52.6611 899.649 57.9833C908.276 63.2087 914.973 70.5146 919.742 79.901C924.582 89.1906 927.001 100.077 927.001 112.56V112.85C927.001 121.753 925.879 129.833 923.635 137.09C921.391 144.251 917.744 151.654 912.694 159.298C907.644 166.846 900.912 175.652 892.496 185.716L847.26 238.986L862.934 202.408V238.986L847.365 222.148H929V263.226H813.175Z" fill="#5F5D5D"/>
</svg>
